<svg xmlns="http://www.w3.org/2000/svg" viewBox="0 0 150 150">
  <defs>
    <style>
      .cls-1 {
        fill-rule: evenodd;
      }
    </style>
  </defs>
  <path class="cls-1"
    d="M 140.9 79.8 c 3.7 15.9 -5.3 30.1 -17.7 36.7 L 119.4 142.2 H 109.5 L 108.6 120.6 c -0.3 0 -0.8 0.2 -1.1 0.2 C 105.7 120.6 104.1 120.6 102.4 120.2 C 99.8 122.2 97.1 123.8 94.2 125.1 l -0.5 16.9 H 83.4 l -3 -13.3 c -1.4 0.2 -2.7 0.2 -4.1 0.2 C 70.7 129 65.1 127.9 59.8 125.8 l 1.1 16.4 h -11.2 l -4.1 -21.9 C 43.1 120.9 40.4 121.4 37.7 121.4 L 38 141.7 l -11.2 0.8 L 22.9 117.1 c -12.6 -7.6 -20.1 -24.2 -15.9 -38.8 c -17.5 -28.9 4.9 -62.4 33.5 -62.4 C 43.1 16.1 45.6 16.2 48.2 16.9 C 62 5 82.3 4.7 96.3 16.4 C 100.3 14.9 104.6 14.3 108.9 14.3 C 139.5 14.3 161.3 53.5 140.9 79.8 Z M 135.3 42.9 C 130.1 31.8 119.7 24.7 108.7 24.7 C 105.7 24.7 102.5 25.2 99.5 26.3 L 93.9 28.3 l -4.5 -3.9 C 84.7 20.3 78.6 18 72.4 18.2 C 66 18 59.8 20.3 55 24.5 l -4 3.6 L 46.1 27.1 C 44.2 26.6 42.3 26.5 40.4 26.5 C 29.7 26.8 20 32.8 14.9 42.4 C 9.6 52 10 63.7 15.7 72.9 l 2.4 3.9 l -1.3 4.4 c -1.8 6.5 0 14.5 4.6 20.6 c 4.3 5.7 10.2 9.1 16.1 9.1 C 40.2 111 42.8 110.3 45.2 109.3 L 50.9 106.7 l 4.8 4.2 C 61.4 116 68.7 118.6 76.2 118.6 C 83.4 118.6 90.4 116.3 96.1 112 L 99.8 109.2 l 4.3 0.8 C 105.2 110.2 106.3 110.2 107.5 110.2 C 114.9 110 121.9 106.4 126.7 100.4 C 130.9 95.4 132.5 88.5 130.9 82.2 l -1.1 -4.9 l 3 -3.9 C 139.5 64.8 140.4 53.5 135.3 42.9 Z m -15.9 17.7 c -8 36.2 -35.8 34.3 -42.2 0.8 c -9.4 0 -12.9 -9.6 -12.9 -13.3 c 11.8 0.8 18 -3.9 20.1 -10.2 c 5.3 5.7 22.3 6.8 28.7 0.7 c 2.7 5.5 8.3 9.6 18.5 9.6 C 131.8 54.4 127 60.1 119.6 60.8 Z" />
</svg>